<?xml version="1.0" encoding="UTF-8" standalone="no"?>
<!-- Created with Inkscape (http://www.inkscape.org/) -->

<svg
   xmlns:dc="http://purl.org/dc/elements/1.1/"
   xmlns:cc="http://creativecommons.org/ns#"
   xmlns:rdf="http://www.w3.org/1999/02/22-rdf-syntax-ns#"
   xmlns:svg="http://www.w3.org/2000/svg"
   xmlns="http://www.w3.org/2000/svg"
   xmlns:sodipodi="http://sodipodi.sourceforge.net/DTD/sodipodi-0.dtd"
   xmlns:inkscape="http://www.inkscape.org/namespaces/inkscape"
   width="178.22694mm"
   height="225.17616mm"
   viewBox="0 0 631.51279 797.86829"
   id="svg2"
   version="1.1"
   inkscape:version="0.91 r13725"
   sodipodi:docname="allspeak.svg"
   inkscape:export-filename="/Volumes/data/Projects/Allspeak/assets/allspeak-logo.png"
   inkscape:export-xdpi="49.759998"
   inkscape:export-ydpi="49.759998">
  <title
     id="title3349">Allspeak logo</title>
  <defs
     id="defs4" />
  <sodipodi:namedview
     id="base"
     pagecolor="#ffffff"
     bordercolor="#666666"
     borderopacity="1.0"
     inkscape:pageopacity="0.0"
     inkscape:pageshadow="2"
     inkscape:zoom="0.66245342"
     inkscape:cx="378.60771"
     inkscape:cy="539.52755"
     inkscape:document-units="px"
     inkscape:current-layer="layer1"
     showgrid="false"
     inkscape:window-width="1440"
     inkscape:window-height="851"
     inkscape:window-x="0"
     inkscape:window-y="0"
     inkscape:window-maximized="1"
     inkscape:showpageshadow="false"
     fit-margin-left="10"
     fit-margin-top="10"
     fit-margin-right="10"
     fit-margin-bottom="10" />
  <metadata
     id="metadata7">
    <rdf:RDF>
      <cc:Work
         rdf:about="">
        <dc:format>image/svg+xml</dc:format>
        <dc:type
           rdf:resource="http://purl.org/dc/dcmitype/StillImage" />
        <dc:title>Allspeak logo</dc:title>
        <dc:creator>
          <cc:Agent>
            <dc:title>Juan-Pablo Scaletti</dc:title>
          </cc:Agent>
        </dc:creator>
        <dc:rights>
          <cc:Agent>
            <dc:title>2015, Juan-Pablo Scaletti</dc:title>
          </cc:Agent>
        </dc:rights>
        <cc:license
           rdf:resource="http://creativecommons.org/licenses/by-nc-sa/3.0/" />
      </cc:Work>
      <cc:License
         rdf:about="http://creativecommons.org/licenses/by-nc-sa/3.0/">
        <cc:permits
           rdf:resource="http://creativecommons.org/ns#Reproduction" />
        <cc:permits
           rdf:resource="http://creativecommons.org/ns#Distribution" />
        <cc:requires
           rdf:resource="http://creativecommons.org/ns#Notice" />
        <cc:requires
           rdf:resource="http://creativecommons.org/ns#Attribution" />
        <cc:prohibits
           rdf:resource="http://creativecommons.org/ns#CommercialUse" />
        <cc:permits
           rdf:resource="http://creativecommons.org/ns#DerivativeWorks" />
        <cc:requires
           rdf:resource="http://creativecommons.org/ns#ShareAlike" />
      </cc:License>
    </rdf:RDF>
  </metadata>
  <g
     inkscape:label="Layer 1"
     inkscape:groupmode="layer"
     id="layer1"
     transform="translate(-234.58268,-344.57739)">
    <g
       id="g3336"
       transform="translate(-10.566781,7.166097)">
      <path
         inkscape:export-ydpi="90"
         inkscape:export-xdpi="90"
         sodipodi:nodetypes="cccccccccccccccccccccccccc"
         inkscape:connector-curvature="0"
         id="path3431"
         d="m 639.5553,913.26187 c 10.08501,-33.91851 14.65291,-69.57468 11.159,-104.77014 36.90969,-40.77495 50.85352,-96.27517 49.95497,-149.24907 -28.50029,11.46945 -69.41399,2.73898 -90.10919,23.24226 -16.08752,18.66403 -26.72574,54.89997 -59.09358,42.82048 -29.73741,-5.78809 -28.70097,-46.40174 -55.37428,-53.19149 -23.91743,1.50484 -60.17764,-16.56548 -75.30203,-7.86899 -0.8876,51.73606 13.55181,106.1009 50.9756,144.84208 -3.99823,34.98285 1.60572,70.25683 10.5008,104.17305 -49.41552,-31.20037 -85.70338,-80.70286 -102.91922,-134.46237 -15.00793,-19.8075 -41.21807,-27.52314 -46.21911,-54.6877 -5.22702,-15.55261 -33.34113,-49.18026 1.22077,-35.59678 -2.63295,-7.6205 -37.45599,-22.23783 -33.85988,-44.45637 -1.06758,-17.67518 -25.7644,-55.6213 11.63757,-42.82202 13.75707,-0.47329 -26.41869,-14.52117 -24.62194,-27.6342 -5.65144,-24.54756 -8.19767,-52.46925 -6.30165,-76.96835 50.6445,159.9593 502.82064,161.28367 560.02604,3.42261 -5.90672,25.64524 6.11613,77.34439 -23.64298,91.07275 -16.44545,7.7844 -14.17905,15.61988 4.04907,7.78399 23.43374,10.46012 -8.82615,45.37846 -5.73728,65.62005 -5.96255,10.63361 -51.94434,29.59467 -15.60511,21.50762 15.33592,5.14867 -13.50497,30.00474 -12.86927,43.45814 -9.48881,30.28633 -49.95118,36.33051 -52.58615,70.7273 -19.22131,45.33988 -52.71133,85.19889 -94.39207,113.57307 l -0.89058,-0.53583 z"
         style="fill:#ced0d2" />
      <path
         inkscape:export-ydpi="90"
         inkscape:export-xdpi="90"
         sodipodi:nodetypes="cssccsscsscsccsscssssssssssscsccscssscssssssssscsscssscscccscsscsscsscscc"
         style="fill:#6fa7ca;fill-opacity:1"
         d="m 469.20489,905.46168 c -8.3042,-7.21367 -17.7288,-16.10269 -21.9319,-20.6855 -8.1474,-8.88343 -20.5018,-24.72269 -27.1614,-34.82301 -12.3579,-18.74252 -24.898,-45.103 -32.1504,-67.5835 -1.211,-3.75358 -2.6426,-7.4278 -3.1815,-8.16495 -1.7623,-2.41097 -7.5432,-27.44433 -10.1395,-43.90747 -6.2572,-39.67811 -5.4927,-89.94405 1.9733,-129.76028 l 1.5627,-8.3337 -9.749,-12.50058 c -5.3619,-6.87531 -15.5047,-19.81995 -22.5395,-28.76587 -7.0349,-8.94592 -13.5874,-17.63126 -14.5613,-19.30075 -0.9738,-1.66951 -10.4253,-14.03853 -21.0032,-27.48672 -10.5779,-13.44817 -19.5155,-25.1209 -19.8612,-25.93941 -0.8535,-2.02046 3.01,-104.90392 3.948,-105.1343 0.3769,-0.0925 9.0658,10.46618 19.3087,23.46383 27.7412,35.20202 102.1583,129.33889 103.7649,131.26153 0.7685,0.9197 1.7876,1.58936 2.2646,1.48815 0.4771,-0.1012 3.1939,-2.59483 6.0375,-5.54139 10.6625,-11.04859 25.2537,-22.16852 38.2586,-29.15686 6.42148,-3.45061 21.51664,-10.17446 30.11129,-13.41246 8.49643,-3.20098 26.62558,-11.22825 33.11578,-14.66308 9.83884,-5.20703 18.81411,-11.27102 26.43181,-17.85824 3.91997,-3.3897 7.17939,-6.16309 7.24316,-6.16309 0.0637,0 3.33196,2.76528 7.26267,6.14505 3.93071,3.37976 10.2303,8.13631 13.99909,10.57007 11.99692,7.74729 15.56351,9.42267 56.81691,26.6893 13.57968,5.68379 20.62813,9.28623 29.90898,15.28642 8.11323,5.24529 20.13627,15.21129 27.21998,22.56289 2.83919,2.94656 5.55206,5.44012 6.02859,5.54124 0.94566,0.20069 3.14163,-2.27608 12.03814,-13.57733 33.1002,-42.04727 111.93195,-141.56685 112.66604,-142.23299 0.51971,-0.47162 1.07017,-0.73947 1.22323,-0.59527 0.30817,0.29033 3.90694,94.825 3.86231,101.45732 l -0.028,4.16686 -19.21656,24.40588 c -10.5691,13.42322 -19.99965,25.74522 -20.95676,27.38219 -1.86898,3.19659 -4.21276,6.24839 -30.40144,39.58516 -11.0284,14.03855 -17.07019,22.2538 -17.07342,23.21536 -0.003,0.81847 0.43106,3.63111 0.96401,6.25027 1.41732,6.96526 4.31596,29.02583 5.12307,38.98989 2.48904,30.72785 1.23827,65.03187 -3.42449,93.92122 -2.69479,16.69624 -8.05154,39.54086 -9.8493,42.00369 -0.5154,0.70607 -1.9239,4.3427 -3.13,8.08139 -13.09347,40.58749 -35.7053,78.52448 -64.11945,107.57633 -9.9393,10.16239 -31.96477,28.84726 -32.97265,27.97168 -0.2473,-0.21482 0.66768,-4.47208 2.03329,-9.46053 7.74344,-28.28616 10.93137,-59.62747 8.66497,-85.18713 l -0.74762,-8.43134 5.75891,-7.43038 c 13.52845,-17.455 22.42217,-34.38997 29.66299,-56.48279 7.72918,-23.5829 11.97811,-50.77984 11.98231,-76.6974 10e-4,-9.02217 -0.13157,-10.26834 -1.09619,-10.26834 -0.60382,0 -5.61459,1.05884 -11.13504,2.35296 -23.29547,5.46099 -44.25361,9.15564 -57.94748,10.21537 -4.55337,0.35237 -8.74139,0.83614 -9.30671,1.07503 -1.17075,0.49473 -1.86886,1.47991 -21.87326,30.86769 l -14.67832,21.56342 -17.19944,0 -17.19944,0 -17.73053,-26.04287 c -9.7518,-14.32358 -18.01706,-26.20507 -18.36726,-26.40336 -0.3502,-0.19828 -3.45573,-0.53433 -6.90119,-0.74677 -13.58096,-0.83745 -36.97405,-4.87532 -60.44245,-10.43294 -6.7838,-1.6065 -12.5655,-2.79881 -12.8482,-2.64958 -0.7296,0.38522 -0.6246,16.52743 0.1853,28.47615 3.2103,47.36087 17.9486,87.8168 42.47021,116.57839 l 4.36887,5.12428 0.0828,23.97399 c 0.0888,25.72144 0.73679,33.75593 4.14173,51.35618 1.51372,7.82448 5.99164,25.87707 6.9658,28.08228 0.2041,0.46206 -0.13029,0.78809 -0.8083,0.78809 -0.63602,0 -7.70917,-5.69219 -15.71811,-12.64937 z"
         id="path3427"
         inkscape:connector-curvature="0" />
      <path
         inkscape:export-ydpi="90"
         inkscape:export-xdpi="90"
         sodipodi:nodetypes="cccccccccssccccccc"
         style="fill:#2b7ab1;fill-opacity:1"
         d="m 542.00777,678.97257 c -11.81976,-14.60087 -17.90126,-35.19633 -30.86285,-49.09288 -0.94866,-0.82411 -2.32745,-1.06761 -6.04509,-1.06761 C 477.48231,626.75812 374.16097,612.502 374.16097,612.502 c 0,0 -2.09576,-18.87529 4.37443,-44.44776 24.93227,6.05205 115.10023,16.33253 138.48902,18.33565 l 12.24771,1.00183 c 6.60677,9.66359 12.03752,18.91901 16.97187,27.0124 9.8641,16.18838 14.19103,22.7451 14.92751,22.62008 0.58118,-0.0986 7.24824,-10.40347 15.16619,-23.44135 7.771,-12.79593 14.63863,-23.94088 15.2614,-24.76658 1.07332,-1.42302 1.64358,-1.53907 10.94579,-2.22749 27.52496,-2.72493 112.37398,-16.858 138.00562,-24.32697 4.06122,14.92483 4.02551,28.19353 5.558,43.5607 -23.13071,5.76297 -103.33679,21.81011 -125.02787,22.80337 -5.00159,0.20402 -9.5461,0.66422 -10.09891,1.02266 -11.49765,17.39066 -19.5242,31.06383 -31.09092,50.05874 -6.44442,-0.60353 -35.13785,1.84665 -37.88304,-0.73471 z"
         id="path3419"
         inkscape:connector-curvature="0" />
    </g>
    <g
       transform="matrix(1.1860137,0,0,1.3064732,77.043524,122.11109)"
       style="font-style:italic;font-variant:normal;font-weight:normal;font-stretch:normal;font-size:60px;line-height:125%;font-family:Zapfino;-inkscape-font-specification:'Zapfino, Italic';text-align:start;letter-spacing:0px;word-spacing:0px;writing-mode:lr-tb;text-anchor:start;fill:#000000;fill-opacity:1;stroke:none;stroke-width:1px;stroke-linecap:butt;stroke-linejoin:miter;stroke-opacity:1"
       id="flowRoot3341">
      <path
         d="m 275.40781,644.94403 q 0.15,0.9 1.95,1.35 1.8,0.45 4.2,0.6 2.55,0.15 5.25,0.15 2.7,0 4.5,0 4.8,0 7.8,0.15 3,0 4.2,0.3 1.5,0.45 1.65,0.45 0.3,-0.15 0.6,-1.2 0.6,-3 1.5,-8.1 0.9,-5.1 1.8,-10.2 0.9,-5.1 1.5,-8.85 0.75,-3.9 0.9,-4.5 0.3,-1.2 0,-1.2 -0.3,-0.15 -1.5,0.75 -0.45,0.3 -2.55,2.1 -2.1,1.65 -5.4,4.35 -3.15,2.7 -7.05,6 -3.75,3.15 -7.5,6.45 -3.6,3.15 -6.75,6.15 -3.15,3 -5.1,5.25 z m -38.7,36.6 q 0.15,-2.7 1.95,-4.8 1.95,-2.25 5.1,-5.25 28.8,-26.85 46.5,-42.3 17.7,-15.6 22.65,-19.05 1.2,-0.75 3.6,-1.35 2.4,-0.6 3.3,-1.5 0.9,-0.9 0.9,-0.15 0.15,0.6 -0.15,1.2 -1.5,2.25 -2.4,5.25 -0.9,2.85 -1.2,4.8 -0.15,0.6 -0.9,4.05 -0.6,3.3 -1.5,8.25 -0.9,4.8 -1.95,10.5 -0.9,5.55 -1.8,10.8 -0.9,5.1 -1.5,9.3 -0.45,4.05 -0.6,5.7 0,2.55 0.45,4.05 0.6,1.35 1.35,2.1 0.75,0.6 1.5,0.75 0.75,0.15 1.2,0.15 0.75,0 1.8,-0.15 1.05,-0.3 2.25,-0.6 1.2,-0.3 1.2,0.15 0.15,0.45 -1.05,0.75 -0.6,0.15 -2.25,0.6 -1.5,0.45 -3.6,1.05 -1.95,0.6 -4.05,1.2 -1.95,0.45 -3.45,0.75 -2.25,0 -3,-3 0.15,-0.9 0.6,-3.75 0.45,-3 0.9,-6.3 0.6,-3.3 1.05,-6.15 0.45,-3 0.45,-3.9 0,-1.65 -1.65,-3.3 -1.5,-1.8 -4.5,-2.55 -1.05,-0.3 -4.05,-0.45 -3,-0.15 -7.2,-0.15 -4.35,0 -8.55,0 -4.2,-0.15 -6.3,-0.45 -11.4,10.35 -19.2,18.9 -7.65,8.55 -11.55,14.25 -1.2,1.95 -1.8,3.45 -0.45,1.65 -0.75,4.2 -0.3,0.9 -0.9,0.45 l -0.9,-7.5 z"
         style="font-style:italic;font-variant:normal;font-weight:normal;font-stretch:normal;font-size:60px;line-height:125%;font-family:Zapfino;-inkscape-font-specification:'Zapfino, Italic';text-align:start;writing-mode:lr-tb;text-anchor:start"
         id="path3343"
         inkscape:connector-curvature="0" />
      <path
         d="m 396.64531,579.24403 q 0,2.1 -1.65,6.15 -1.65,4.05 -4.8,9.45 -3,5.25 -7.5,11.4 -4.35,6 -10.05,12 -5.55,6 -12.3,11.55 -6.75,5.4 -14.4,9.6 -1.35,2.4 -3.75,6.45 -2.4,4.05 -4.8,8.55 -2.25,4.5 -4.05,8.85 -1.65,4.35 -1.65,7.35 0,4.8 4.35,4.8 3.75,0 7.8,-2.1 4.05,-2.1 7.65,-5.1 3.75,-3 6.9,-6.3 3.3,-3.45 5.55,-6.15 1.05,-1.05 1.2,-0.45 0.15,0.45 -0.45,1.05 -2.7,3.3 -6.45,7.05 -3.6,3.75 -7.8,6.9 -4.05,3.15 -8.55,5.25 -4.5,2.1 -9,2.1 -3.9,0 -5.7,-1.8 -1.65,-1.95 -1.65,-4.65 0,-2.7 2.25,-7.65 2.4,-5.1 5.55,-10.65 3.15,-5.55 6.3,-10.5 3.15,-4.95 4.65,-7.5 2.55,-4.35 5.25,-9 2.85,-4.8 5.55,-9.3 2.7,-4.5 5.1,-8.55 2.55,-4.2 4.65,-7.35 2.55,-3.9 5.25,-7.35 2.7,-3.45 6.9,-6.9 5.7,-4.8 10.5,-7.35 4.8,-2.55 6.45,-2.55 1.2,0 1.95,0.75 0.75,0.6 0.75,1.95 z m -6.75,3.9 q 0,-2.4 -1.95,-2.4 -0.75,0 -1.65,0.45 -0.9,0.45 -2.4,1.95 -1.35,1.35 -3.45,3.9 -1.95,2.55 -5.1,6.6 -1.2,1.65 -3.45,4.8 -2.1,3.15 -5.55,8.4 -3.3,5.1 -8.1,12.75 -4.65,7.5 -11.1,17.85 9,-5.1 16.8,-12.3 7.95,-7.35 13.65,-15 5.7,-7.65 9,-14.85 3.3,-7.2 3.3,-12.15 z"
         style="font-style:italic;font-variant:normal;font-weight:normal;font-stretch:normal;font-size:60px;line-height:125%;font-family:Zapfino;-inkscape-font-specification:'Zapfino, Italic';text-align:start;writing-mode:lr-tb;text-anchor:start"
         id="path3345"
         inkscape:connector-curvature="0" />
      <path
         d="m 427.11406,579.24403 q 0,2.1 -1.65,6.15 -1.65,4.05 -4.8,9.45 -3,5.25 -7.5,11.4 -4.35,6 -10.05,12 -5.55,6 -12.3,11.55 -6.75,5.4 -14.4,9.6 -1.35,2.4 -3.75,6.45 -2.4,4.05 -4.8,8.55 -2.25,4.5 -4.05,8.85 -1.65,4.35 -1.65,7.35 0,4.8 4.35,4.8 3.75,0 7.8,-2.1 4.05,-2.1 7.65,-5.1 3.75,-3 6.9,-6.3 3.3,-3.45 5.55,-6.15 1.05,-1.05 1.2,-0.45 0.15,0.45 -0.45,1.05 -2.7,3.3 -6.45,7.05 -3.6,3.75 -7.8,6.9 -4.05,3.15 -8.55,5.25 -4.5,2.1 -9,2.1 -3.9,0 -5.7,-1.8 -1.65,-1.95 -1.65,-4.65 0,-2.7 2.25,-7.65 2.4,-5.1 5.55,-10.65 3.15,-5.55 6.3,-10.5 3.15,-4.95 4.65,-7.5 2.55,-4.35 5.25,-9 2.85,-4.8 5.55,-9.3 2.7,-4.5 5.1,-8.55 2.55,-4.2 4.65,-7.35 2.55,-3.9 5.25,-7.35 2.7,-3.45 6.9,-6.9 5.7,-4.8 10.5,-7.35 4.8,-2.55 6.45,-2.55 1.2,0 1.95,0.75 0.75,0.6 0.75,1.95 z m -6.75,3.9 q 0,-2.4 -1.95,-2.4 -0.75,0 -1.65,0.45 -0.9,0.45 -2.4,1.95 -1.35,1.35 -3.45,3.9 -1.95,2.55 -5.1,6.6 -1.2,1.65 -3.45,4.8 -2.1,3.15 -5.55,8.4 -3.3,5.1 -8.1,12.75 -4.65,7.5 -11.1,17.85 9,-5.1 16.8,-12.3 7.95,-7.35 13.65,-15 5.7,-7.65 9,-14.85 3.3,-7.2 3.3,-12.15 z"
         style="font-style:italic;font-variant:normal;font-weight:normal;font-stretch:normal;font-size:60px;line-height:125%;font-family:Zapfino;-inkscape-font-specification:'Zapfino, Italic';text-align:start;writing-mode:lr-tb;text-anchor:start"
         id="path3347"
         inkscape:connector-curvature="0" />
      <path
         d="m 408.08281,649.59403 q -0.45,0.75 -0.75,0.15 -0.9,-1.95 -3.75,-1.95 -2.1,0 -4.2,1.2 -2.1,1.2 -2.1,3.6 0,1.2 0.75,2.4 0.75,1.2 2.1,3.15 1.2,1.8 2.25,3.6 1.05,1.8 1.05,3.75 0,3.9 -1.8,6.45 -1.8,2.4 -4.35,3.9 -2.4,1.5 -4.95,1.95 -2.55,0.6 -4.05,0.6 -9.15,0 -10.05,-6.15 0.75,-0.45 1.65,-1.05 1.05,-0.75 1.5,-1.35 0.3,0 0.45,0.6 0.75,2.7 2.85,4.65 2.1,1.95 4.95,1.95 1.2,0 2.85,-0.15 1.65,-0.3 3,-1.05 1.5,-0.9 2.55,-2.4 1.05,-1.5 1.05,-4.05 0,-1.95 -0.75,-3.6 -0.75,-1.65 -1.65,-3 -0.9,-1.5 -1.8,-3 -0.9,-1.5 -0.9,-3.3 0,-1.8 1.2,-3.9 1.35,-2.1 3.3,-3.75 1.95,-1.8 4.2,-3 2.4,-1.2 4.65,-1.2 2.4,0 2.4,1.5 -0.45,0.75 -0.9,1.8 -0.45,0.9 -0.75,1.65 z"
         style="font-style:italic;font-variant:normal;font-weight:normal;font-stretch:normal;font-size:60px;line-height:125%;font-family:Zapfino;-inkscape-font-specification:'Zapfino, Italic';text-align:start;writing-mode:lr-tb;text-anchor:start"
         id="path3349"
         inkscape:connector-curvature="0" />
      <path
         d="m 456.96875,653.49403 q -7.95,10.05 -17.1,15 -9,4.8 -18.9,7.05 -3.45,0.75 -6,1.2 -2.55,0.45 -5.1,0.9 -4.35,7.35 -8.25,14.55 -3.9,7.35 -7.8,14.55 -5.7,10.65 -10.35,20.1 -4.65,9.45 -10.05,18.75 -1.05,1.8 -2.85,2.7 -1.8,1.05 -4.2,1.8 -2.4,0.75 -5.55,1.5 -3.15,0.75 -6.9,2.1 -0.9,0.45 -1.05,-0.3 -0.15,-0.6 0.75,-0.9 3.9,-1.5 6.6,-3 2.7,-1.35 4.95,-3.3 2.1,-1.95 4.05,-4.65 1.95,-2.7 4.5,-6.75 2.55,-4.2 6.3,-10.5 3.6,-6.15 8.1,-13.65 4.5,-7.5 9.45,-16.05 4.95,-8.4 10.05,-16.95 -0.9,-0.3 -0.9,-1.65 0,-0.9 0.9,-1.05 1.05,-0.15 1.65,-0.3 l 6.9,-11.25 q 4.8,-7.8 9.6,-16.2 4.8,-8.4 9.9,-15 0.6,-0.6 1.65,-0.9 0.3,-0.15 1.2,-0.3 0.9,-0.15 1.8,-0.3 0.9,-0.15 1.65,-0.15 0.75,-0.15 0.9,-0.15 0.45,0 0.45,0.3 0,0.45 -0.6,1.05 -3.15,2.85 -5.55,5.55 -2.4,2.55 -4.5,5.1 -2.1,2.4 -4.05,4.95 -1.8,2.55 -3.75,5.55 1.5,-1.65 3.3,-3.45 1.8,-1.8 3.6,-3.3 1.8,-1.5 3.6,-2.4 1.8,-1.05 3.3,-1.05 1.5,0 2.4,0.9 1.05,0.9 1.05,3 0,1.5 -1.35,4.65 -1.2,3.15 -4.35,7.05 -3,3.9 -8.1,8.1 -5.1,4.2 -12.75,7.8 4.05,-0.45 9,-1.35 5.1,-1.05 10.5,-3.3 5.4,-2.4 10.8,-6.3 5.4,-4.05 10.2,-10.35 0.15,-0.3 0.45,-0.15 0.45,0 0.45,0.75 z m -21,-3.9 q 0,-0.6 -0.3,-1.5 -0.15,-0.9 -1.5,-0.9 -0.75,0 -2.25,0.9 -1.35,0.75 -3.15,2.25 -1.8,1.35 -3.75,3.45 -1.95,2.1 -3.75,4.65 -2.55,3.6 -4.95,7.8 -2.4,4.05 -4.8,8.4 4.95,-1.35 9.3,-4.5 4.5,-3.15 7.8,-6.9 3.45,-3.75 5.4,-7.5 1.95,-3.75 1.95,-6.15 z"
         style="font-style:italic;font-variant:normal;font-weight:normal;font-stretch:normal;font-size:60px;line-height:125%;font-family:Zapfino;-inkscape-font-specification:'Zapfino, Italic';text-align:start;writing-mode:lr-tb;text-anchor:start"
         id="path3351"
         inkscape:connector-curvature="0" />
      <path
         d="m 484.16562,659.19403 q -2.54999,3.15 -6.15,6.6 -3.45,3.3 -7.64999,6.15 -4.05001,2.7 -8.55001,4.5 -4.35,1.65 -8.69999,1.65 -7.05001,0 -7.05001,-6.3 0,-4.2 2.1,-9 2.25,-4.95 5.70001,-9 3.44999,-4.2 7.5,-6.9 4.19999,-2.85 7.94999,-2.85 2.1,0 2.85,0.75 0.9,0.75 0.9,1.95 0,1.8 -1.19999,3.9 -1.05001,2.1 -3.30001,4.05 -2.25,1.8 -5.69999,3.15 -3.45001,1.2 -8.25,1.2 -0.75,1.35 -1.65001,4.35 -0.9,2.85 -0.9,5.85 0,6.15 5.55001,6.15 3.44999,0 7.04999,-1.65 3.75,-1.65 7.20001,-4.05 3.44999,-2.55 6.29999,-5.4 3,-3 4.95001,-5.55 0.29999,-0.3 0.59999,-0.15 0.45,0.15 0.45,0.6 z m -15.75,-11.7 q 0,-1.95 -1.95,-1.95 -1.5,0 -3.15,1.2 -1.5,1.05 -3,2.85 -1.5,1.8 -2.85,3.9 -1.34999,2.1 -2.25,4.05 0.3,0.15 1.05,0.3 0.75,0 1.2,0 4.35,0 7.65001,-3 3.29999,-3.15 3.29999,-7.35 z"
         style="font-style:italic;font-variant:normal;font-weight:normal;font-stretch:normal;font-size:60px;line-height:125%;font-family:Zapfino;-inkscape-font-specification:'Zapfino, Italic';text-align:start;writing-mode:lr-tb;text-anchor:start"
         id="path3353"
         inkscape:connector-curvature="0" />
      <path
         d="m 528.66875,656.49403 q -3.45,4.2 -7.65,8.55 -4.05,4.2 -8.25,7.65 -4.2,3.45 -8.4,5.55 -4.05,2.1 -7.5,2.1 -3,0 -4.2,-1.5 -1.2,-1.5 -1.2,-3.75 0,-2.1 1.2,-5.55 1.35,-3.6 3.9,-7.65 -1.95,2.55 -4.5,5.4 -2.55,2.85 -5.25,5.25 -2.7,2.25 -5.4,3.9 -2.7,1.5 -4.8,1.5 -3.15,0 -3.15,-3.15 0,-3.45 2.7,-8.7 2.7,-5.25 7.2,-10.05 4.65,-4.95 10.5,-8.4 5.85,-3.6 12.15,-3.6 0.75,-1.5 1.35,-2.1 0.6,-0.6 1.2,-0.9 l 4.2,-1.2 0.3,0.15 q -0.75,0.75 -1.5,1.95 -0.6,1.05 -1.35,2.25 0.75,0 2.25,0.15 1.5,0.15 2.25,0.3 0.75,0.3 0.75,0.75 0,0.45 -0.45,0.45 -0.9,-0.3 -2.7,-0.45 -1.8,-0.15 -2.7,-0.15 -6.9,12.15 -10.2,19.35 -3.15,7.05 -3.15,10.5 0,1.35 0.6,2.25 0.75,0.9 2.85,0.9 2.4,0 5.7,-1.65 3.3,-1.8 7.05,-4.8 3.75,-3.15 7.65,-7.2 4.05,-4.05 7.65,-8.55 0.3,-0.45 0.6,-0.15 0.3,0.15 0.3,0.6 z m -23.4,-11.4 q -5.1,0 -9.75,3.6 -4.65,3.6 -8.25,8.55 -3.6,4.8 -5.85,9.6 -2.1,4.8 -2.1,7.05 0,1.2 0.9,1.2 0.9,0 2.7,-1.2 1.95,-1.2 4.35,-3.15 2.4,-2.1 4.8,-4.8 2.55,-2.7 4.65,-5.85 2.4,-3.6 4.65,-7.65 2.25,-4.05 4.05,-7.2 l -0.15,-0.15 z"
         style="font-style:italic;font-variant:normal;font-weight:normal;font-stretch:normal;font-size:60px;line-height:125%;font-family:Zapfino;-inkscape-font-specification:'Zapfino, Italic';text-align:start;writing-mode:lr-tb;text-anchor:start"
         id="path3355"
         inkscape:connector-curvature="0" />
      <path
         d="m 601.89219,587.64403 q 0,1.65 -0.9,3.3 -0.75,1.65 -1.05,3.75 0,0.75 -0.6,0.9 -0.45,0 -0.45,-0.75 0,-0.45 0.15,-0.75 0.15,-0.45 0.15,-0.9 0,-1.8 -0.9,-3.15 -0.9,-1.35 -2.4,-2.1 -1.35,-0.9 -3,-1.2 -1.65,-0.45 -3.15,-0.45 -3.45,0 -8.7,1.8 -5.1,1.8 -11.1,7.95 -5.55,5.7 -10.95,13.2 -5.25,7.35 -10.05,15.15 -3,4.95 -6.75,11.4 -3.75,6.3 -7.2,12.45 -3.45,6 -6.15,10.8 -2.7,4.65 -3.45,6.3 -0.6,1.2 -0.45,1.2 0.3,0 1.2,-0.9 2.55,-2.55 5.25,-4.95 2.7,-2.4 5.85,-5.25 -0.15,-0.6 -0.15,-1.95 0,-1.2 1.8,-2.25 1.95,-1.2 3,-1.5 0.3,0 0.3,0.6 0,0.45 0.15,0.75 0.75,-0.6 3.45,-2.85 2.7,-2.4 5.85,-4.8 3.15,-2.55 5.7,-4.5 2.7,-2.1 3.3,-2.1 0.45,0 0.75,0.45 0.45,0.3 0.9,1.5 0,0.9 -1.5,1.35 -1.8,0.6 -4.35,2.1 -2.55,1.5 -5.25,3.45 -2.55,1.95 -5.1,3.9 -2.4,1.95 -3.9,3.3 0.15,1.95 0.6,4.35 0.45,2.4 1.05,4.8 0.6,2.4 1.35,4.8 0.9,2.25 1.8,4.05 0.75,1.65 2.1,2.4 1.5,0.75 3,0.75 2.25,0 4.95,-1.8 2.85,-1.8 5.7,-4.5 2.85,-2.85 5.4,-6 2.7,-3.3 4.65,-6.15 0.45,-0.75 0.9,-0.3 0.6,0.45 0.15,0.9 -2.25,3 -4.8,6 -2.55,3 -5.25,5.7 -2.55,2.7 -5.1,4.8 -2.55,2.1 -4.65,3.3 -3.6,1.8 -6.15,1.8 -1.95,0 -3.45,-0.9 -1.5,-0.9 -2.7,-3.15 -1.05,-2.4 -2.1,-6.45 -0.9,-4.05 -2.1,-10.35 -4.8,4.65 -9.6,9.6 -4.8,4.95 -8.1,10.8 -0.3,0.75 -1.2,0.75 -1.05,0 -1.65,-1.2 -0.6,-1.35 -0.6,-2.4 0,-0.3 0,-0.6 0,-0.3 0.15,-0.6 1.5,-2.1 3.15,-5.1 1.65,-3.15 4.05,-7.5 2.55,-4.5 6.15,-10.65 3.6,-6.15 8.85,-14.55 2.4,-3.9 5.4,-8.4 3.15,-4.65 6.45,-9.3 3.45,-4.8 6.9,-9.3 3.6,-4.65 6.9,-8.4 2.4,-2.7 5.1,-5.4 2.85,-2.85 5.85,-5.1 3,-2.4 6.15,-4.2 3.3,-1.8 6.6,-2.55 1.5,-0.3 2.85,-0.6 1.5,-0.3 2.85,-0.3 1.2,0 2.55,0.45 1.5,0.3 2.7,1.05 1.2,0.6 1.95,1.65 0.9,1.05 0.9,2.55 z"
         style="font-style:italic;font-variant:normal;font-weight:normal;font-stretch:normal;font-size:60px;line-height:125%;font-family:Zapfino;-inkscape-font-specification:'Zapfino, Italic';text-align:start;writing-mode:lr-tb;text-anchor:start"
         id="path3357"
         inkscape:connector-curvature="0" />
    </g>
  </g>
</svg>
